<?xml version="1.0" standalone="no"?><svg xmlns="http://www.w3.org/2000/svg" viewBox="0 0 1440 320"><path fill="#0099ff" fill-opacity="1" d="M0,96L30,80C60,64,120,32,180,64C240,96,300,192,360,197.3C420,203,480,117,540,117.3C600,117,660,203,720,213.3C780,224,840,160,900,128C960,96,1020,96,1080,117.3C1140,139,1200,181,1260,197.3C1320,213,1380,203,1410,197.3L1440,192L1440,320L1410,320C1380,320,1320,320,1260,320C1200,320,1140,320,1080,320C1020,320,960,320,900,320C840,320,780,320,720,320C660,320,600,320,540,320C480,320,420,320,360,320C300,320,240,320,180,320C120,320,60,320,30,320L0,320Z"></path></svg>