<?xml version="1.0" standalone="no"?><svg xmlns="http://www.w3.org/2000/svg" viewBox="0 0 1440 320"><path fill="#0099ff" fill-opacity="1" d="M0,96L30,80C60,64,120,32,180,64C240,96,300,192,360,197.3C420,203,480,117,540,117.3C600,117,660,203,720,213.3C780,224,840,160,900,128C960,96,1020,96,1080,117.3C1140,139,1200,181,1260,197.3C1320,213,1380,203,1410,197.3L1440,192L1440,0L1410,0C1380,0,1320,0,1260,0C1200,0,1140,0,1080,0C1020,0,960,0,900,0C840,0,780,0,720,0C660,0,600,0,540,0C480,0,420,0,360,0C300,0,240,0,180,0C120,0,60,0,30,0L0,0Z"></path></svg>